<svg width="11" height="10" viewBox="0 0 11 10" fill="none" xmlns="http://www.w3.org/2000/svg">
<path d="M10.5 5C10.5 7.76142 8.26142 10 5.5 10C2.73858 10 0.5 7.76142 0.5 5C0.5 2.23858 2.73858 0 5.5 0C8.26142 0 10.5 2.23858 10.5 5Z" fill="#78A962"/>
<path fill-rule="evenodd" clip-rule="evenodd" d="M7.82128 3.6169C7.6097 3.43945 7.29433 3.46712 7.11688 3.67871L4.97878 6.22815L3.87869 4.95206C3.69839 4.74291 3.38267 4.71953 3.17352 4.89983C2.96436 5.08014 2.94098 5.39585 3.12128 5.60501L4.98927 7.77185L7.88309 4.3213C8.06054 4.10971 8.03287 3.79434 7.82128 3.6169Z" fill="white"/>
</svg>
